<svg width="18" height="18" viewBox="0 0 18 18" fill="none" xmlns="http://www.w3.org/2000/svg">
<path d="M14.7273 6.54545L13.7045 4.29545L11.4545 3.27273L13.7045 2.25L14.7273 0L15.75 2.25L18 3.27273L15.75 4.29545L14.7273 6.54545ZM14.7273 18L13.7045 15.75L11.4545 14.7273L13.7045 13.7045L14.7273 11.4545L15.75 13.7045L18 14.7273L15.75 15.75L14.7273 18ZM6.54545 15.5455L4.5 11.0455L0 9L4.5 6.95455L6.54545 2.45455L8.59091 6.95455L13.0909 9L8.59091 11.0455L6.54545 15.5455ZM6.54545 11.5773L7.36364 9.81818L9.12273 9L7.36364 8.18182L6.54545 6.42273L5.72727 8.18182L3.96818 9L5.72727 9.81818L6.54545 11.5773Z" fill="#474741" fill-opacity="0.7"/>
<path d="M14.7273 6.54545L13.7045 4.29545L11.4545 3.27273L13.7045 2.25L14.7273 0L15.75 2.25L18 3.27273L15.75 4.29545L14.7273 6.54545ZM14.7273 18L13.7045 15.75L11.4545 14.7273L13.7045 13.7045L14.7273 11.4545L15.75 13.7045L18 14.7273L15.75 15.75L14.7273 18ZM6.54545 15.5455L4.5 11.0455L0 9L4.5 6.95455L6.54545 2.45455L8.59091 6.95455L13.0909 9L8.59091 11.0455L6.54545 15.5455ZM6.54545 11.5773L7.36364 9.81818L9.12273 9L7.36364 8.18182L6.54545 6.42273L5.72727 8.18182L3.96818 9L5.72727 9.81818L6.54545 11.5773Z" fill="#7E7E7A"/>
</svg>
